<?xml version="1.0" encoding="UTF-8"?>
<svg id="Layer_1" data-name="Layer 1" xmlns="http://www.w3.org/2000/svg" version="1.1" viewBox="0 0 512 392.5">
  <defs>
    <style>
      .cls-1 {
        fill: #f2e9e4;
        stroke-width: 0px;
      }
    </style>
  </defs>
  <path class="cls-1" d="M256.1,197.9c23.9,0,46.4-9.3,63.2-26.2L467.1,24C447.7,8.9,423.3,0,396.8,0H115.2C88.8,0,64.5,8.9,45,23.8l147.9,147.9c16.9,16.9,39.4,26.2,63.2,26.2h0Z"/>
  <g>
    <path class="cls-1" d="M488.2,347.4c14.9-19.4,23.8-43.8,23.8-70.2V115.2c0-26.3-8.8-50.6-23.7-70l-147.7,147.7c-1.2,1.2-2.3,2.3-3.5,3.4l151.1,151.1h0Z"/>
    <g>
      <path class="cls-1" d="M175.1,196.1c-1.1-1.1-2.3-2.1-3.4-3.2L23.8,45C8.9,64.5,0,88.8,0,115.2v162.1c0,26.4,8.9,50.7,23.8,70.2l151.3-151.2h0Z"/>
      <path class="cls-1" d="M312.3,213.9c-17.1,9.1-36.2,13.9-56.1,13.9s-39.2-4.9-56.3-14.1L45,368.6c19.4,14.9,43.8,23.8,70.2,23.8h281.6c26.4,0,50.7-8.9,70.2-23.8l-154.7-154.7h0Z"/>
    </g>
  </g>
</svg>