<?xml version="1.0" encoding="UTF-8"?>
<svg id="Layer_1" data-name="Layer 1" xmlns="http://www.w3.org/2000/svg" version="1.1" viewBox="0 0 512 509.6">
  <defs>
    <style>
      .cls-1 {
        fill: #f2e9e4;
        fill-rule: evenodd;
        stroke-width: 0px;
      }
    </style>
  </defs>
  <path class="cls-1" d="M396.4,0H115.6C51.8,0,0,51.8,0,115.6v278.4c0,63.9,51.8,115.6,115.6,115.6h280.8c63.9,0,115.6-51.8,115.6-115.6V115.6C512,51.8,460.2,0,396.4,0ZM166.7,412.3h-70.2v-214.7h70.2v214.7ZM131.7,167.5c-19.4,0-35.1-15.7-35.1-35.1s15.7-35.1,35.1-35.1,35.1,15.7,35.1,35.1-15.7,35.1-35.1,35.1ZM415.4,412.3h-67.5v-104.1c0-23.8-.5-54.4-35.1-54.4s-40.5,25.9-40.5,52.7v105.9h-67.4v-214.7h64.7v33.2h.9c9-16.2,31-33.2,63.9-33.2,68.3,0,80.9,42.5,80.9,97.8v116.9h0Z"/>
</svg>